<?xml version="1.0" encoding="utf-8"?>
<!-- Generator: Adobe Illustrator 27.4.0, SVG Export Plug-In . SVG Version: 6.00 Build 0)  -->
<svg version="1.1" id="Layer_1" xmlns="http://www.w3.org/2000/svg" xmlns:xlink="http://www.w3.org/1999/xlink" x="0px" y="0px"
	 viewBox="0 0 105 77" style="enable-background:new 0 0 105 77;" xml:space="preserve">
<style type="text/css">
	.st0{fill:#FFFFFF;}
</style>
<g>
	<path class="st0" d="M13.9,22.4c-2.4,0-4.5-0.8-6.1-2.4c-1.6-1.6-2.4-3.6-2.4-6c0-2.4,0.8-4.4,2.4-6c1.6-1.6,3.6-2.4,6.1-2.4
		c1.5,0,2.8,0.3,4.1,1c1.2,0.7,2.2,1.6,2.9,2.8l-3.2,1.9c-0.4-0.6-0.9-1.1-1.5-1.5s-1.4-0.5-2.2-0.5c-1.4,0-2.6,0.4-3.5,1.3
		S9.2,12.5,9.2,14c0,1.5,0.4,2.6,1.3,3.5s2,1.3,3.5,1.3c0.8,0,1.6-0.2,2.2-0.5c0.7-0.4,1.2-0.8,1.5-1.5l3.2,1.9
		c-0.7,1.2-1.7,2.1-2.9,2.8C16.8,22.1,15.4,22.4,13.9,22.4z"/>
	<path class="st0" d="M31.8,5.8h3.7v16.3h-3.7v-6.5h-5.1v6.5h-3.7V5.8h3.7V12h5.1V5.8z"/>
	<path class="st0" d="M52.4,20c-1.6,1.6-3.6,2.4-6,2.4c-2.4,0-4.4-0.8-6-2.4c-1.6-1.6-2.5-3.6-2.5-6c0-2.4,0.8-4.4,2.5-6
		c1.6-1.6,3.6-2.4,6-2.4c2.4,0,4.4,0.8,6,2.4c1.6,1.6,2.5,3.6,2.5,6C54.8,16.3,54,18.4,52.4,20z M43,17.4c0.9,0.9,2,1.4,3.4,1.4
		c1.3,0,2.5-0.5,3.4-1.4c0.9-0.9,1.4-2.1,1.4-3.5c0-1.4-0.5-2.6-1.4-3.5c-0.9-0.9-2-1.4-3.4-1.4c-1.4,0-2.5,0.5-3.4,1.4
		c-0.9,0.9-1.4,2.1-1.4,3.5C41.6,15.4,42.1,16.5,43,17.4z"/>
	<path class="st0" d="M71,20c-1.6,1.6-3.6,2.4-6,2.4c-2.4,0-4.4-0.8-6-2.4c-1.6-1.6-2.5-3.6-2.5-6c0-2.4,0.8-4.4,2.5-6
		c1.6-1.6,3.6-2.4,6-2.4c2.4,0,4.4,0.8,6,2.4c1.6,1.6,2.5,3.6,2.5,6C73.5,16.3,72.6,18.4,71,20z M61.6,17.4c0.9,0.9,2,1.4,3.4,1.4
		c1.3,0,2.5-0.5,3.4-1.4c0.9-0.9,1.4-2.1,1.4-3.5c0-1.4-0.5-2.6-1.4-3.5c-0.9-0.9-2-1.4-3.4-1.4c-1.4,0-2.5,0.5-3.4,1.4
		c-0.9,0.9-1.4,2.1-1.4,3.5C60.2,15.4,60.7,16.5,61.6,17.4z"/>
	<path class="st0" d="M81,22.4c-1.7,0-3-0.4-4.2-1.1c-1.1-0.7-1.9-1.7-2.4-2.9l3.2-1.9c0.7,1.5,1.8,2.3,3.4,2.3
		c1.5,0,2.2-0.4,2.2-1.3c0-0.5-0.2-0.9-0.7-1.1c-0.5-0.3-1.4-0.6-2.7-0.9c-0.7-0.2-1.3-0.4-1.8-0.6c-0.5-0.2-1-0.5-1.5-0.9
		s-0.9-0.9-1.1-1.4c-0.3-0.6-0.4-1.2-0.4-2c0-1.5,0.5-2.7,1.6-3.6s2.4-1.4,3.9-1.4c1.3,0,2.5,0.3,3.5,0.9C85.1,7,86,8,86.5,9.2
		L83.4,11c-0.3-0.6-0.7-1.1-1.1-1.4c-0.4-0.3-1-0.5-1.7-0.5c-0.6,0-1,0.1-1.3,0.4c-0.3,0.2-0.5,0.5-0.5,0.9c0,0.4,0.2,0.8,0.6,1
		c0.4,0.3,1.2,0.6,2.4,1c0.7,0.2,1.2,0.4,1.5,0.5c0.4,0.1,0.8,0.3,1.4,0.6c0.6,0.3,1,0.6,1.3,0.9c0.3,0.3,0.5,0.7,0.8,1.3
		c0.2,0.5,0.3,1.1,0.3,1.8c0,1.6-0.6,2.8-1.7,3.7C84.2,22,82.8,22.4,81,22.4z"/>
	<path class="st0" d="M92.8,18.5h6.5v3.6H89V5.8h10.1v3.6h-6.4v2.7h5.8v3.5h-5.8V18.5z"/>
	<path class="st0" d="M27.5,26.9L19,42.4v9.7h-5.8v-9.7L4.8,26.9h6.6l4.8,9.7l4.8-9.7H27.5z"/>
	<path class="st0" d="M49.6,48.8c-2.5,2.5-5.6,3.8-9.3,3.8s-6.7-1.3-9.3-3.8c-2.5-2.5-3.8-5.6-3.8-9.3c0-3.7,1.3-6.8,3.8-9.3
		c2.5-2.5,5.6-3.8,9.3-3.8s6.7,1.3,9.3,3.8c2.5,2.5,3.8,5.6,3.8,9.3C53.4,43.2,52.1,46.3,49.6,48.8z M35.1,44.9
		c1.4,1.4,3.1,2.1,5.2,2.1c2.1,0,3.8-0.7,5.2-2.1c1.4-1.4,2.1-3.2,2.1-5.4s-0.7-4-2.1-5.4c-1.4-1.4-3.1-2.1-5.2-2.1
		c-2.1,0-3.8,0.7-5.2,2.1c-1.4,1.4-2.1,3.2-2.1,5.4S33.7,43.5,35.1,44.9z"/>
	<path class="st0" d="M73.4,50.3c-1.8,1.6-4.2,2.3-7,2.3c-2.8,0-5.2-0.8-7-2.3c-1.8-1.6-2.7-3.7-2.7-6.3V26.9h5.8v16.6
		c0,2.4,1.3,3.5,4,3.5c2.6,0,4-1.2,4-3.5V26.9h5.8V44C76.2,46.6,75.3,48.7,73.4,50.3z"/>
	<path class="st0" d="M94,52.1l-4.8-8.3h-2.7v8.3h-5.8V26.9h10.1c2.4,0,4.4,0.8,6.1,2.5c1.7,1.7,2.5,3.7,2.5,6.1
		c0,1.5-0.4,3-1.3,4.3c-0.9,1.3-2,2.3-3.4,3l5.4,9.3H94z M86.5,32.3v6.5h4.3c0.8,0,1.5-0.3,2-0.9c0.6-0.6,0.8-1.4,0.8-2.3
		s-0.3-1.7-0.8-2.3c-0.6-0.6-1.2-0.9-2-0.9H86.5z"/>
	<path class="st0" d="M9.9,60.1c1.1,0,2,0.4,2.8,1.1c0.8,0.7,1.1,1.7,1.1,2.7c0,1.1-0.4,2-1.1,2.7c-0.8,0.7-1.7,1.1-2.8,1.1H8.2v3.5
		H5.7V60.1H9.9z M9.9,65.4c0.4,0,0.7-0.1,1-0.4s0.4-0.6,0.4-1c0-0.4-0.1-0.7-0.4-1s-0.6-0.4-1-0.4H8.2v2.9H9.9z"/>
	<path class="st0" d="M21.2,71.3l-2.1-3.7h-1.2v3.7h-2.6V60.1h4.5c1.1,0,2,0.4,2.7,1.1c0.7,0.7,1.1,1.7,1.1,2.7
		c0,0.7-0.2,1.3-0.6,1.9s-0.9,1-1.5,1.4l2.4,4.1H21.2z M17.9,62.5v2.9h1.9c0.4,0,0.7-0.1,0.9-0.4s0.4-0.6,0.4-1c0-0.4-0.1-0.7-0.4-1
		s-0.6-0.4-0.9-0.4H17.9z"/>
	<path class="st0" d="M27.9,68.8h4.5v2.5h-7V60.1h7v2.5h-4.4v1.9h4v2.4h-4V68.8z"/>
	<path class="st0" d="M40.8,62.6h-4.2v2.2h4.2v2.5h-4.2v4.1H34V60.1h6.8V62.6z"/>
	<path class="st0" d="M45.1,68.8h4.5v2.5h-7V60.1h7v2.5h-4.4v1.9h4v2.4h-4V68.8z"/>
	<path class="st0" d="M57.1,71.3L55,67.6h-1.2v3.7h-2.6V60.1h4.5c1.1,0,2,0.4,2.7,1.1c0.7,0.7,1.1,1.7,1.1,2.7
		c0,0.7-0.2,1.3-0.6,1.9s-0.9,1-1.5,1.4l2.4,4.1H57.1z M53.8,62.5v2.9h1.9c0.4,0,0.7-0.1,0.9-0.4s0.4-0.6,0.4-1c0-0.4-0.1-0.7-0.4-1
		s-0.6-0.4-0.9-0.4H53.8z"/>
	<path class="st0" d="M63.8,68.8h4.5v2.5h-7V60.1h7v2.5h-4.4v1.9h4v2.4h-4V68.8z"/>
	<path class="st0" d="M76.1,60.1h2.6v11.2h-1.9l-4.3-6.1v6.1h-2.6V60.1h1.9l4.3,6.1V60.1z"/>
	<path class="st0" d="M86.2,71.5c-1.7,0-3.1-0.6-4.2-1.7c-1.1-1.1-1.7-2.5-1.7-4.2s0.6-3,1.7-4.2c1.1-1.1,2.5-1.7,4.2-1.7
		c1,0,1.9,0.2,2.8,0.7c0.9,0.5,1.5,1.1,2,1.9l-2.2,1.3c-0.2-0.4-0.6-0.8-1.1-1c-0.5-0.2-1-0.4-1.5-0.4c-1,0-1.8,0.3-2.4,0.9
		c-0.6,0.6-0.9,1.4-0.9,2.4c0,1,0.3,1.8,0.9,2.4c0.6,0.6,1.4,0.9,2.4,0.9c0.6,0,1.1-0.1,1.5-0.4s0.8-0.6,1-1l2.2,1.3
		c-0.5,0.8-1.1,1.4-2,1.9C88.1,71.3,87.2,71.5,86.2,71.5z"/>
	<path class="st0" d="M94.9,68.8h4.5v2.5h-7V60.1h7v2.5h-4.4v1.9h4v2.4h-4V68.8z"/>
</g>
</svg>
